<svg id="Layer_1" data-name="Layer 1" xmlns="http://www.w3.org/2000/svg" viewBox="0 0 150.07 81.18"><defs><style>.cls-1{fill:#00c8ff;}.cls-2{fill:#fff;}</style></defs><title>BRAIN_full_lock-up_white</title><path class="cls-1" d="M132.39,39.47h5.31a1.3,1.3,0,1,0,0-2.61h-5.31A1.3,1.3,0,1,0,132.39,39.47Z" transform="translate(-24.97 -24.41)"/><path class="cls-1" d="M137.7,67.27h-5.31a1.3,1.3,0,1,0,0,2.61h5.31A1.3,1.3,0,1,0,137.7,67.27Z" transform="translate(-24.97 -24.41)"/><path class="cls-1" d="M134.12,41.75a1.23,1.23,0,0,0-.42,1V64a1.23,1.23,0,0,0,.42,1,1.33,1.33,0,0,0,1.8,0,1.23,1.23,0,0,0,.42-1V42.75a1.23,1.23,0,0,0-.42-1A1.33,1.33,0,0,0,134.12,41.75Z" transform="translate(-24.97 -24.41)"/><path class="cls-1" d="M119.13,68l-12.57-30.5a1.2,1.2,0,0,0-1.12-.88,1.47,1.47,0,0,0-1.35.88L91.51,68a1.38,1.38,0,0,0-.09.61,1.31,1.31,0,0,0,2.51.47l3-7.17L98,59.26l7.31-17.74,7.36,17.74H101.08a1.33,1.33,0,1,0,0,2.65h12.6l3,7.17a1.36,1.36,0,0,0,1.21.79,1.3,1.3,0,0,0,1.35-1.26A1.38,1.38,0,0,0,119.13,68Z" transform="translate(-24.97 -24.41)"/><path class="cls-2" d="M173.76,103.59H26a1,1,0,1,0,0,2H173.76A1,1,0,0,0,173.76,103.59Z" transform="translate(-24.97 -24.41)"/><path class="cls-2" d="M173.76,24.41H26a1,1,0,0,0,0,2H173.76A1,1,0,0,0,173.76,24.41Z" transform="translate(-24.97 -24.41)"/><path class="cls-2" d="M26.65,81.31a0.91,0.91,0,0,0-.93.89V92a0.91,0.91,0,0,0,.93.89A0.92,0.92,0,0,0,27.57,92V82.21A0.9,0.9,0,0,0,26.65,81.31Z" transform="translate(-24.97 -24.41)"/><path class="cls-2" d="M47.06,81.31a0.86,0.86,0,0,0-.88.84v7.53L40,81.81a1.18,1.18,0,0,0-.91-0.5,1,1,0,0,0-1.06,1V92a0.89,0.89,0,0,0,1.77,0V84.52L46,92.41a1.15,1.15,0,0,0,.93.48,1,1,0,0,0,1.06-1V82.16A0.87,0.87,0,0,0,47.06,81.31Z" transform="translate(-24.97 -24.41)"/><path class="cls-2" d="M59.36,81.31a0.91,0.91,0,0,0-.93.89V92a0.91,0.91,0,0,0,.93.89A0.92,0.92,0,0,0,60.28,92V82.21A0.9,0.9,0,0,0,59.36,81.31Z" transform="translate(-24.97 -24.41)"/><path class="cls-2" d="M78.4,81.46h-8a0.82,0.82,0,0,0-.79.83,0.81,0.81,0,0,0,.79.81h3.09V92a0.91,0.91,0,0,0,.93.89A0.92,0.92,0,0,0,75.32,92V83.1H78.4a0.81,0.81,0,0,0,.81-0.81A0.83,0.83,0,0,0,78.4,81.46Z" transform="translate(-24.97 -24.41)"/><path class="cls-2" d="M89.42,81.31a0.91,0.91,0,0,0-.93.89V92a0.91,0.91,0,0,0,.93.89A0.92,0.92,0,0,0,90.34,92V82.21A0.9,0.9,0,0,0,89.42,81.31Z" transform="translate(-24.97 -24.41)"/><path class="cls-2" d="M106.06,82.26a1.3,1.3,0,0,0-1.29-1,1.27,1.27,0,0,0-1.29,1L99.89,91.6a1.56,1.56,0,0,0-.1.45,0.82,0.82,0,0,0,.88.84,0.88,0.88,0,0,0,.93-0.65l0.78-2.05h4.71l0.79,2.05a0.86,0.86,0,0,0,.89.65A0.84,0.84,0,0,0,109.7,92a2,2,0,0,0-.08-0.43Zm-3.21,6.45,1.9-5,1.89,5h-3.79Z" transform="translate(-24.97 -24.41)"/><path class="cls-2" d="M125.57,81.46h-8a0.82,0.82,0,0,0-.79.83,0.81,0.81,0,0,0,.79.81h3.09V92a0.91,0.91,0,0,0,.93.89,0.92,0.92,0,0,0,.93-0.89V83.1h3.08a0.81,0.81,0,0,0,.81-0.81A0.83,0.83,0,0,0,125.57,81.46Z" transform="translate(-24.97 -24.41)"/><path class="cls-2" d="M136.59,81.31a0.91,0.91,0,0,0-.93.89V92a0.91,0.91,0,0,0,.93.89,0.92,0.92,0,0,0,.93-0.89V82.21A0.9,0.9,0,0,0,136.59,81.31Z" transform="translate(-24.97 -24.41)"/><path class="cls-2" d="M156.19,81.31a1,1,0,0,0-.93.63L152,90.49,148.8,82a0.92,0.92,0,0,0-.89-0.65,0.93,0.93,0,0,0-1,.91,1.17,1.17,0,0,0,.07.35l3.67,9.36a1.36,1.36,0,0,0,1.32,1,1.38,1.38,0,0,0,1.31-1l3.74-9.36a1,1,0,0,0,.08-0.36A0.89,0.89,0,0,0,156.19,81.31Z" transform="translate(-24.97 -24.41)"/><path class="cls-2" d="M174.24,91.09H168.4V87.9h5a0.82,0.82,0,0,0,0-1.64h-5V83.1h5.84a0.8,0.8,0,0,0,.79-0.81,0.81,0.81,0,0,0-.79-0.83h-6.77a0.91,0.91,0,0,0-.93.89v9.48a0.91,0.91,0,0,0,.93.89h6.77A0.82,0.82,0,0,0,174.24,91.09Z" transform="translate(-24.97 -24.41)"/><path class="cls-1" d="M47.76,55.15a9.45,9.45,0,0,0-4-3.44,8.22,8.22,0,0,0,2.39-2.87,8.07,8.07,0,0,0,.87-3.71,8,8,0,0,0-.64-3.18,8.47,8.47,0,0,0-1.76-2.63A8.38,8.38,0,0,0,42,37.53a8,8,0,0,0-3.23-.66H26.44a1.18,1.18,0,0,0-1,.42,1.34,1.34,0,0,0,0,1.79,1.18,1.18,0,0,0,1,.42H38.8a5.41,5.41,0,0,1,2.18.45,6.1,6.1,0,0,1,1.81,1.21A5.48,5.48,0,0,1,44,43a5.6,5.6,0,0,1,.45,2.21A5.37,5.37,0,0,1,44,47.37a5.53,5.53,0,0,1-1.24,1.79A6.11,6.11,0,0,1,41,50.36c-0.69.3-6.42,0.45-7.2,0.45h-2.9a1.19,1.19,0,0,0-1,.42,1.34,1.34,0,0,0,0,1.79,1.19,1.19,0,0,0,1,.42h9a6.86,6.86,0,0,1,6.34,4.18,7,7,0,0,1,0,5.31,6.83,6.83,0,0,1-6.34,4.18H27.65V46.53a1.19,1.19,0,0,0-.41-1,1.29,1.29,0,0,0-1.75,0,1.19,1.19,0,0,0-.41,1V68.43a1.35,1.35,0,0,0,1.31,1.31H39.8A9.32,9.32,0,0,0,43.48,69a9.37,9.37,0,0,0,5-5,9.33,9.33,0,0,0,.74-3.68A9.15,9.15,0,0,0,47.76,55.15Z" transform="translate(-24.97 -24.41)"/><path class="cls-1" d="M82.45,67.83L75.4,57.75a1.15,1.15,0,0,0-1-.56A1.47,1.47,0,0,0,73,58.54a1.24,1.24,0,0,0,.19.61h0l0.16,0.22h0l0,0.07,6.9,9.86a1.15,1.15,0,0,0,1,.56,1.47,1.47,0,0,0,1.44-1.35,1.26,1.26,0,0,0-.24-0.69h0Z" transform="translate(-24.97 -24.41)"/><path class="cls-1" d="M83.24,46.25a9.38,9.38,0,0,0-9.45-9.36h-8.7a1.18,1.18,0,0,0-1,.42,1.34,1.34,0,0,0,0,1.78,1.18,1.18,0,0,0,1,.42h8.75a6.78,6.78,0,1,1,0,13.55h-8.7a1.18,1.18,0,0,0-1,.42,1.34,1.34,0,0,0,0,1.78,1.18,1.18,0,0,0,1,.42H65.5l5.35,0h3.31A9.48,9.48,0,0,0,83.24,46.25Z" transform="translate(-24.97 -24.41)"/><path class="cls-1" d="M61.9,38.23a1.23,1.23,0,0,0-.42-1,1.33,1.33,0,0,0-1.8,0,1.23,1.23,0,0,0-.42,1V68.57a1.33,1.33,0,0,0,2.65,0V39h0V38.23Z" transform="translate(-24.97 -24.41)"/><path class="cls-1" d="M173.15,36.56a1.3,1.3,0,0,0-1.3,1.3V64.39L167.54,58a1.15,1.15,0,0,0-1-.59,1.47,1.47,0,0,0-1.49,1.3,1.28,1.28,0,0,0,.3.85l6,8.94h0l0.53,0.78a1.31,1.31,0,0,0,1.15.57,1.35,1.35,0,0,0,1.4-1.35V37.86A1.31,1.31,0,0,0,173.15,36.56Z" transform="translate(-24.97 -24.41)"/><path class="cls-1" d="M164.84,54.19l-5.9-8.75h0l-0.13-.19h0l-0.34-.47h0l-4.84-7.16a1.44,1.44,0,0,0-1.12-.75,1.23,1.23,0,0,0-1.4,1.15V68.57a1.33,1.33,0,0,0,2.65,0V42.63l1.75,2.51,7.17,10.61a1.15,1.15,0,0,0,1,.59,1.47,1.47,0,0,0,1.49-1.3A1.28,1.28,0,0,0,164.84,54.19Z" transform="translate(-24.97 -24.41)"/></svg>